<?xml version="1.0" encoding="UTF-8" standalone="no"?>
<svg
   xmlns:dc="http://purl.org/dc/elements/1.1/"
   xmlns:cc="http://creativecommons.org/ns#"
   xmlns:rdf="http://www.w3.org/1999/02/22-rdf-syntax-ns#"
   xmlns:svg="http://www.w3.org/2000/svg"
   xmlns="http://www.w3.org/2000/svg"
   xmlns:sodipodi="http://sodipodi.sourceforge.net/DTD/sodipodi-0.dtd"
   xmlns:inkscape="http://www.inkscape.org/namespaces/inkscape"
   id="svg2"
   sodipodi:docname="dictionary-pictogram-icon-yellow.svg"
   version="1.0"
   inkscape:version="0.92.2 (5c3e80d, 2017-08-06)"
   viewBox="0 0 500.000000 500.000000"
   inkscape:export-filename="/Users/duda/Creative Cloud Files/SOCKS-Proxy/Proxy-Yellow-Icon.png"
   inkscape:export-xdpi="24.576"
   inkscape:export-ydpi="24.576">
  <title
     id="title9375">Dictionary Pictogram</title>
  <defs
     id="defs10" />
  <sodipodi:namedview
     id="namedview12"
     bordercolor="#666666"
     inkscape:pageshadow="2"
     guidetolerance="10"
     pagecolor="#ffffff"
     gridtolerance="10"
     inkscape:window-maximized="0"
     inkscape:zoom="1.0680141"
     objecttolerance="10"
     borderopacity="1"
     inkscape:current-layer="layer2"
     inkscape:cx="177.85078"
     inkscape:cy="277.22354"
     inkscape:window-y="22"
     inkscape:window-x="0"
     inkscape:window-width="1393"
     showgrid="false"
     inkscape:pageopacity="0"
     inkscape:window-height="856" />
  <g
     inkscape:groupmode="layer"
     id="layer1"
     inkscape:label="Layer 1">
    <rect
       style="display:inline;fill:#d69e19;fill-opacity:1;stroke:#000000;stroke-width:40.74585724;stroke-linejoin:round;stroke-miterlimit:4;stroke-dasharray:none;stroke-dashoffset:0;stroke-opacity:1"
       id="rect4755"
       width="459.25415"
       height="459.25415"
       x="20.85112"
       y="19.89472"
       rx="5.4972277"
       ry="5.4972277" />
  </g>
  <g
     inkscape:groupmode="layer"
     id="layer2"
     inkscape:label="Layer 2"
     style="display:inline">
    <path
       inkscape:connector-curvature="0"
       id="rect3019-1-5"
       d="M 185.36837,61.928037 61.289684,296.12058 l 0.553303,0.0582 -0.553303,0.98839 v 109.16 l 253.693356,27.70426 124.0285,-234.19254 -23.10005,-2.49832 V 133.43033 L 439.01745,89.635506 185.36837,61.928328 Z m 38.54681,77.263783 20.56519,2.22565 -9.31395,94.66105 -21.16422,-2.31665 2.44368,-21.43954 -38.50107,-4.22424 -18.85805,19.71275 -20.65667,-2.27114 85.48613,-86.34831 z m 186.82477,3.9972 v 77.44546 L 308.47176,412.32584 v -89.16526 l 6.50124,0.68134 95.76724,-180.64454 z m -187.99039,18.16911 -30.80057,32.15932 26.3284,2.86171 4.47246,-35.02132 z m 92.03281,12.80921 c 2.08942,0.0262 4.27932,0.16196 6.54743,0.40882 8.23935,0.89691 13.85914,2.50021 16.92223,4.76931 3.06265,2.26925 4.68995,4.90726 4.84133,7.90357 0.15124,2.99644 -1.77721,8.23467 -5.7635,15.76206 l -10.92767,20.21277 c -3.04981,5.75829 -4.99891,10.05507 -5.85588,12.85472 -0.85702,2.79963 -1.30323,5.82748 -1.33714,9.1299 l -18.25901,-1.9986 c 0.12777,-1.20416 0.42522,-2.97596 0.92217,-5.31439 0.23775,-1.06166 0.37214,-1.74613 0.41497,-2.08945 -4.68051,2.53568 -9.19974,4.31145 -13.55595,5.35989 -4.35634,1.04839 -8.55789,1.35211 -12.63375,0.90845 -7.18763,-0.78236 -11.86016,-3.20154 -14.06305,-7.31299 -2.20289,-4.11145 -1.856,-8.98688 1.10661,-14.58035 1.96061,-3.70185 4.64863,-6.88958 8.06908,-9.58428 3.4203,-2.69455 7.26746,-4.6414 11.48096,-5.81411 4.21351,-1.17266 9.82093,-1.95224 16.82929,-2.40733 9.43994,-0.58202 16.16827,-1.36289 20.19632,-2.31664 l 0.92217,-1.72607 c 1.76437,-3.33163 2.15419,-5.79405 1.15272,-7.40398 -1.00161,-1.60978 -3.94204,-2.69542 -8.80683,-3.22509 -3.28706,-0.35774 -6.18504,-0.0131 -8.66842,0.9993 -2.48338,1.01305 -5.087,2.9854 -7.83847,5.90496 L 281.25106,189.926 c 5.23926,-6.12895 10.93846,-10.44811 17.15242,-12.99092 4.66044,-1.90702 10.14641,-2.84949 16.41467,-2.77071 z m -1.0605,37.15511 c -2.75885,0.48277 -6.96144,0.98342 -12.63376,1.45352 -5.67247,0.47017 -9.56492,1.09238 -11.66543,1.90776 -3.26006,1.34177 -5.51709,3.25547 -6.82407,5.72328 -1.28529,2.4268 -1.45283,4.65318 -0.46109,6.63172 0.99164,1.97854 2.96778,3.1277 5.94794,3.45213 3.33089,0.36256 7.04497,-0.31663 11.15831,-2.04396 3.06293,-1.31966 5.57021,-3.08308 7.4696,-5.26903 1.26626,-1.42823 3.00996,-4.20346 5.21019,-8.3578 l 1.79831,-3.49747 z m -234.60069,86.75822 222.79689,24.3466 v 93.97935 L 79.12118,392.28677 v -94.20756 z"
       style="stroke-width:1.46446121" />
  </g>
  <metadata
     id="metadata7">
    <rdf:RDF>
      <cc:Work>
        <dc:format>image/svg+xml</dc:format>
        <dc:type
           rdf:resource="http://purl.org/dc/dcmitype/StillImage" />
        <cc:license
           rdf:resource="http://creativecommons.org/publicdomain/zero/1.0/" />
        <dc:publisher>
          <cc:Agent
             rdf:about="http://openclipart.org/">
            <dc:title>Openclipart</dc:title>
          </cc:Agent>
        </dc:publisher>
        <dc:title>Dictionary Pictogram</dc:title>
        <dc:creator>
          <cc:Agent>
            <dc:title>Vookimedlo</dc:title>
          </cc:Agent>
        </dc:creator>
        <dc:subject>
          <rdf:Bag>
            <rdf:li>book</rdf:li>
            <rdf:li>dictionary</rdf:li>
            <rdf:li>library</rdf:li>
          </rdf:Bag>
        </dc:subject>
      </cc:Work>
      <cc:License
         rdf:about="http://creativecommons.org/publicdomain/zero/1.0/">
        <cc:permits
           rdf:resource="http://creativecommons.org/ns#Reproduction" />
        <cc:permits
           rdf:resource="http://creativecommons.org/ns#Distribution" />
        <cc:permits
           rdf:resource="http://creativecommons.org/ns#DerivativeWorks" />
      </cc:License>
    </rdf:RDF>
  </metadata>
</svg>
